<?xml version="1.0" encoding="UTF-8" standalone="no"?>
<svg width="28px" height="32px" viewBox="0 0 28 32" version="1.1" xmlns="http://www.w3.org/2000/svg" xmlns:xlink="http://www.w3.org/1999/xlink" xmlns:sketch="http://www.bohemiancoding.com/sketch/ns">
    <!-- Generator: Sketch 3.4.4 (17249) - http://www.bohemiancoding.com/sketch -->
    <title>Shape + Shape</title>
    <desc>Created with Sketch.</desc>
    <defs></defs>
    <g id="Page-1" stroke="none" stroke-width="1" fill="none" fill-rule="evenodd" sketch:type="MSPage">
        <g id="Shape-+-Shape" sketch:type="MSLayerGroup" fill="#FFFFFF">
            <path d="M26,2 L24,2 L24,6 L4,6 L4,2 L1.999,2 C0.894,2 0,2.895 0,4 L0,30 C0,31.105 0.894,32 1.999,32 L26,32 C27.105,32 28,31.105 28,30 L28,4 C28,2.895 27.105,2 26,2 L26,2 L26,2 Z M6,12 L22,12 L22,14 L6,14 L6,12 L6,12 L6,12 Z M6,18 L22,18 L22,20 L6,20 L6,18 L6,18 L6,18 Z M22,26 L6,26 L6,24 L22,24 L22,26 L22,26 L22,26 Z" id="Shape" sketch:type="MSShapeGroup"></path>
            <path d="M22,2 C22,0.895 21.105,0 20,0 L7.999,0 C6.894,0 6,0.895 6,2 L6,4 L22,4 L22,2 L22,2 Z" id="Shape" sketch:type="MSShapeGroup"></path>
        </g>
    </g>
</svg>